<svg width="17" height="16" viewBox="0 0 17 16" fill="none" xmlns="http://www.w3.org/2000/svg">
    <path fill-rule="evenodd" clip-rule="evenodd"
          d="M15.1673 8.0026C15.1673 11.6845 12.1825 14.6693 8.50065 14.6693C4.81875 14.6693 1.83398 11.6845 1.83398 8.0026C1.83398 4.32071 4.81875 1.33594 8.50065 1.33594C12.1825 1.33594 15.1673 4.32071 15.1673 8.0026ZM11.7711 12.2158C10.868 12.9179 9.73314 13.3359 8.50065 13.3359C5.55513 13.3359 3.16732 10.9481 3.16732 8.0026C3.16732 6.77012 3.58538 5.63528 4.28743 4.73215L11.7711 12.2158ZM12.7139 11.273L5.23024 3.78935C6.13336 3.08732 7.26819 2.66927 8.50065 2.66927C11.4462 2.66927 13.834 5.05709 13.834 8.0026C13.834 9.23507 13.4159 10.3699 12.7139 11.273Z"
          fill="white" fill-opacity="0.4"/>
</svg>
