<svg width="17" height="16" viewBox="0 0 17 16" fill="none" xmlns="http://www.w3.org/2000/svg">
    <path d="M3.384 2.42796C3.16602 2.85578 3.16602 3.41583 3.16602 4.53594V11.4693C3.16602 12.5894 3.16602 13.1494 3.384 13.5773C3.57575 13.9536 3.88171 14.2595 4.25803 14.4513C4.68586 14.6693 5.24591 14.6693 6.36602 14.6693H10.6327C11.7528 14.6693 12.3128 14.6693 12.7407 14.4513C13.117 14.2595 13.4229 13.9536 13.6147 13.5773C13.8327 13.1494 13.8327 12.5894 13.8327 11.4693V6.53594C13.8327 6.34925 13.8327 6.25591 13.7964 6.18461C13.7644 6.12189 13.7134 6.07089 13.6507 6.03894C13.5794 6.0026 13.486 6.0026 13.2993 6.0026H11.8327C10.3599 6.0026 9.16602 4.8087 9.16602 3.33594V1.86927C9.16602 1.68259 9.16602 1.58924 9.12968 1.51794C9.09773 1.45522 9.04673 1.40423 8.98401 1.37227C8.91271 1.33594 8.81937 1.33594 8.63268 1.33594H6.36602C5.24591 1.33594 4.68586 1.33594 4.25803 1.55392C3.88171 1.74567 3.57575 2.05163 3.384 2.42796Z"
          fill="white" fill-opacity="0.4"/>
    <path d="M10.5 1.80734C10.5 1.54699 10.7111 1.33594 10.9714 1.33594C11.0964 1.33594 11.2163 1.3856 11.3047 1.47401L13.6953 3.86453C13.7837 3.95294 13.8333 4.07284 13.8333 4.19787C13.8333 4.45822 13.6223 4.66927 13.3619 4.66927H11.8333C11.097 4.66927 10.5 4.07232 10.5 3.33594V1.80734Z"
          fill="white" fill-opacity="0.4"/>
</svg>
