<svg width="17" height="16" viewBox="0 0 17 16" fill="none" xmlns="http://www.w3.org/2000/svg">
    <path fill-rule="evenodd" clip-rule="evenodd"
          d="M12.6946 10.1953C12.955 9.93491 13.3771 9.93491 13.6374 10.1953L14.9708 11.5286C15.2311 11.7889 15.2311 12.2111 14.9708 12.4714C14.7104 12.7318 14.2883 12.7318 14.0279 12.4714L13.8327 12.2761V14.6667C13.8327 15.0349 13.5342 15.3333 13.166 15.3333C12.7978 15.3333 12.4993 15.0349 12.4993 14.6667V12.2761L12.3041 12.4714C12.0437 12.7318 11.6216 12.7318 11.3613 12.4714C11.1009 12.2111 11.1009 11.7889 11.3613 11.5286L12.6946 10.1953Z"
          fill="white" fill-opacity="0.4"/>
    <path fill-rule="evenodd" clip-rule="evenodd"
          d="M1.83398 5.86406C1.83398 4.74396 1.83398 4.18391 2.05197 3.75608C2.24372 3.37976 2.54968 3.0738 2.926 2.88205C3.35383 2.66406 3.91388 2.66406 5.03398 2.66406H11.9673C13.0874 2.66406 13.6475 2.66406 14.0753 2.88205C14.4516 3.0738 14.7576 3.37976 14.9493 3.75608C15.1673 4.18391 15.1673 4.74396 15.1673 5.86406V8.13073C15.1673 8.31741 15.1673 8.41076 15.131 8.48206C15.099 8.54478 15.048 8.59577 14.9853 8.62773C14.914 8.66406 14.8207 8.66406 14.634 8.66406H13.1673C10.9582 8.66406 9.16732 10.4549 9.16732 12.6641V12.7974C9.16732 12.9841 9.16732 13.0774 9.13099 13.1487C9.09903 13.2114 9.04804 13.2624 8.98531 13.2944C8.91401 13.3307 8.82067 13.3307 8.63398 13.3307H5.03398C3.91388 13.3307 3.35383 13.3307 2.926 13.1127C2.54968 12.921 2.24372 12.615 2.05197 12.2387C1.83398 11.8109 1.83398 11.2508 1.83398 10.1307V5.86406ZM4.61757 5.62027C4.82585 5.31665 5.24083 5.23937 5.54444 5.44765L8.12352 7.2169C8.35078 7.37279 8.65053 7.37279 8.87778 7.2169L11.4569 5.44765C11.7605 5.23937 12.1754 5.31665 12.3837 5.62027C12.592 5.92389 12.5147 6.33886 12.2111 6.54714L9.63203 8.31639C8.95027 8.78408 8.05103 8.78407 7.36927 8.31639L4.79019 6.54714C4.48658 6.33886 4.40929 5.92389 4.61757 5.62027Z"
          fill="white" fill-opacity="0.4"/>
</svg>
