<svg width="17" height="16" viewBox="0 0 17 16" fill="none" xmlns="http://www.w3.org/2000/svg">
    <path d="M12.5203 12.0213L10.3854 9.88636C9.90278 10.369 9.23609 10.6675 8.49967 10.6675C7.02692 10.6675 5.83301 9.47356 5.83301 8.0008C5.83301 7.26439 6.13151 6.5977 6.61412 6.11513L4.47946 3.98047C3.10749 5.01549 2.34928 6.40594 2.01318 7.16072C1.77425 7.69731 1.77425 8.3043 2.01319 8.84089C2.59274 10.1424 4.42749 13.3341 8.49999 13.3341C10.2107 13.3341 11.5265 12.771 12.5203 12.0213Z"
          fill="white" fill-opacity="0.3"/>
    <path d="M7.55693 7.05793C7.31561 7.29923 7.16634 7.63258 7.16634 8.0008C7.16634 8.73718 7.7633 9.33414 8.49967 9.33414C8.8679 9.33414 9.20125 9.18487 9.44254 8.94355L7.55693 7.05793Z"
          fill="white" fill-opacity="0.3"/>
    <path d="M8.49953 2.66406C12.5721 2.66406 14.4067 5.85594 14.9862 7.15743C15.225 7.69395 15.225 8.30084 14.9862 8.83736C14.8824 9.07043 14.7432 9.35419 14.5636 9.66464C14.3792 9.98332 13.9713 10.0922 13.6526 9.90775C13.334 9.72333 13.2251 9.3155 13.4095 8.99682C13.5626 8.73238 13.6808 8.4912 13.7681 8.29505C13.8533 8.10374 13.8533 7.89106 13.7681 7.69974C13.2396 6.51255 11.7364 3.9974 8.49953 3.9974L7.83269 3.9974C7.4645 3.9974 7.16602 3.69893 7.16602 3.33074C7.16601 2.96255 7.46449 2.66407 7.83268 2.66407L8.49953 2.66406Z"
          fill="white" fill-opacity="0.3"/>
    <path fill-rule="evenodd" clip-rule="evenodd"
          d="M2.02925 1.5312C2.2896 1.27085 2.71171 1.27085 2.97206 1.5312L14.9721 13.5312C15.2324 13.7915 15.2324 14.2137 14.9721 14.474C14.7117 14.7344 14.2896 14.7344 14.0292 14.474L2.02925 2.47401C1.7689 2.21366 1.7689 1.79155 2.02925 1.5312Z"
          fill="white" fill-opacity="0.3"/>
</svg>
