<svg width="17" height="16" viewBox="0 0 17 16" fill="none" xmlns="http://www.w3.org/2000/svg">
    <path fill-rule="evenodd" clip-rule="evenodd"
          d="M10.2896 3.1059C9.55268 1.63137 7.44851 1.63136 6.71157 3.10589L2.71357 11.1054C2.04897 12.4352 3.01597 13.9995 4.50258 13.9995H12.4985C13.9851 13.9995 14.9521 12.4352 14.2875 11.1054L10.2896 3.1059ZM7.83382 5.99951C7.83382 5.63132 8.1323 5.33285 8.50049 5.33285C8.86868 5.33285 9.16716 5.63132 9.16716 5.99951V8.66618C9.16716 9.03437 8.86868 9.33285 8.50049 9.33285C8.1323 9.33285 7.83382 9.03437 7.83382 8.66618V5.99951ZM7.83382 10.6662C7.83382 10.298 8.1323 9.99951 8.50049 9.99951C8.86868 9.99951 9.16716 10.298 9.16716 10.6662C9.16716 11.0344 8.86868 11.3328 8.50049 11.3328C8.1323 11.3328 7.83382 11.0344 7.83382 10.6662Z"
          fill="white" fill-opacity="0.4"/>
</svg>
