<svg width="344" height="368" viewBox="0 0 344 368" fill="none" xmlns="http://www.w3.org/2000/svg">
    <rect x="1" y="0.5" width="342" height="367" rx="3.5" stroke="white" stroke-opacity="0.2"/>
    <rect width="343" height="56" transform="translate(0.5)" fill="white" fill-opacity="0.05"/>
    <path d="M24.9004 32.7984H24.1504V33.5484H24.9004V32.7984ZM24.9004 23.1984V22.4484H24.1504V23.1984H24.9004ZM29.7604 32.0484H24.9004V33.5484H29.7604V32.0484ZM25.6504 32.7984V27.9984H24.1504V32.7984H25.6504ZM32.8504 30.3984C32.8504 28.6768 31.4847 27.2484 29.7604 27.2484V28.7484C30.6207 28.7484 31.3504 29.4692 31.3504 30.3984H32.8504ZM29.7604 33.5484C31.4847 33.5484 32.8504 32.1201 32.8504 30.3984H31.3504C31.3504 31.3277 30.6207 32.0484 29.7604 32.0484V33.5484ZM29.0404 27.2484H24.9004V28.7484H29.0404V27.2484ZM25.6504 27.9984V23.1984H24.1504V27.9984H25.6504ZM29.0404 22.4484H24.9004V23.9484H29.0404V22.4484ZM32.1304 25.5984C32.1304 23.8768 30.7647 22.4484 29.0404 22.4484V23.9484C29.9007 23.9484 30.6304 24.6692 30.6304 25.5984H32.1304ZM29.0404 28.7484C30.7647 28.7484 32.1304 27.3201 32.1304 25.5984H30.6304C30.6304 26.5277 29.9007 27.2484 29.0404 27.2484V28.7484ZM29.7604 27.2484H24.9004V28.7484H29.7604V27.2484ZM21.3004 19.1484H35.7004V17.6484H21.3004V19.1484ZM37.3504 20.7984V35.1984H38.8504V20.7984H37.3504ZM35.7004 36.8484H21.3004V38.3484H35.7004V36.8484ZM19.6504 35.1984V20.7984H18.1504V35.1984H19.6504ZM21.3004 36.8484C20.3891 36.8484 19.6504 36.1097 19.6504 35.1984H18.1504C18.1504 36.9381 19.5607 38.3484 21.3004 38.3484V36.8484ZM37.3504 35.1984C37.3504 36.1097 36.6117 36.8484 35.7004 36.8484V38.3484C37.4401 38.3484 38.8504 36.9381 38.8504 35.1984H37.3504ZM35.7004 19.1484C36.6117 19.1484 37.3504 19.8872 37.3504 20.7984H38.8504C38.8504 19.0587 37.4401 17.6484 35.7004 17.6484V19.1484ZM21.3004 17.6484C19.5607 17.6484 18.1504 19.0587 18.1504 20.7984H19.6504C19.6504 19.8872 20.3891 19.1484 21.3004 19.1484V17.6484Z"
          fill="white" fill-opacity="0.6"/>
    <path d="M90.935 32.7985H81.7014M89.1991 22.603V25.9007C89.1991 27.722 87.7226 29.1984 85.9014 29.1984C84.0801 29.1984 82.6037 27.722 82.6037 25.9007V22.603M78.7008 37.5984H93.1008C94.4263 37.5984 95.5008 36.5239 95.5008 35.1984V20.7984C95.5008 19.473 94.4263 18.3984 93.1008 18.3984H78.7008C77.3753 18.3984 76.3008 19.473 76.3008 20.7984V35.1984C76.3008 36.5239 77.3753 37.5984 78.7008 37.5984Z"
          stroke="white" stroke-opacity="0.6" stroke-width="1.5" stroke-linecap="round" stroke-linejoin="round"/>
    <path d="M141.615 32.7984L144.388 23.1984M141.615 32.7984H138.729M141.615 32.7984H144.5M144.388 23.1984H141.502M144.388 23.1984H147.274M136.101 37.5984H150.501C151.827 37.5984 152.901 36.5239 152.901 35.1984V20.7984C152.901 19.473 151.827 18.3984 150.501 18.3984H136.101C134.776 18.3984 133.701 19.473 133.701 20.7984V35.1984C133.701 36.5239 134.776 37.5984 136.101 37.5984Z"
          stroke="white" stroke-opacity="0.6" stroke-width="1.5" stroke-linecap="round" stroke-linejoin="round"/>
    <path d="M210.3 35.8008H191.1M208.5 30.6008H194.375M210.3 25.4008H191.1M206.1 20.8008L195.838 20.8008"
          stroke="white" stroke-opacity="0.6" stroke-width="1.5" stroke-linecap="round" stroke-linejoin="round"/>
    <path d="M254.819 22H267.699M254.819 28.48H267.699M254.819 34.96H267.699M249.699 22V22.0128M249.699 28.48V28.4928M249.699 34.96V34.9728"
          stroke="white" stroke-opacity="0.6" stroke-width="1.5" stroke-linecap="round" stroke-linejoin="round"/>
    <path d="M307.095 34.7822C306.802 35.0751 306.802 35.5499 307.095 35.8428C307.388 36.1357 307.862 36.1357 308.155 35.8428L307.095 34.7822ZM312.125 30.8125L312.655 30.2822C312.362 29.9893 311.888 29.9893 311.595 30.2822L312.125 30.8125ZM314.375 33.0625L313.845 33.5928C314.138 33.8857 314.612 33.8857 314.905 33.5928L314.375 33.0625ZM319.438 28L319.968 27.4697C319.675 27.1768 319.2 27.1768 318.907 27.4697L319.438 28ZM323.407 33.0303C323.7 33.3232 324.175 33.3232 324.468 33.0303C324.761 32.7374 324.761 32.2626 324.468 31.9697L323.407 33.0303ZM308.155 35.8428L312.655 31.3428L311.595 30.2822L307.095 34.7822L308.155 35.8428ZM311.595 31.3428L313.845 33.5928L314.905 32.5322L312.655 30.2822L311.595 31.3428ZM314.905 33.5928L319.968 28.5303L318.907 27.4697L313.845 32.5322L314.905 33.5928ZM318.907 28.5303L323.407 33.0303L324.468 31.9697L319.968 27.4697L318.907 28.5303ZM309.875 19.75H321.125V18.25H309.875V19.75ZM323.75 22.375V33.625H325.25V22.375H323.75ZM321.125 36.25H309.875V37.75H321.125V36.25ZM307.25 33.625V22.375H305.75V33.625H307.25ZM309.875 36.25C308.425 36.25 307.25 35.0747 307.25 33.625H305.75C305.75 35.9032 307.597 37.75 309.875 37.75V36.25ZM323.75 33.625C323.75 35.0747 322.575 36.25 321.125 36.25V37.75C323.403 37.75 325.25 35.9032 325.25 33.625H323.75ZM321.125 19.75C322.575 19.75 323.75 20.9253 323.75 22.375H325.25C325.25 20.0968 323.403 18.25 321.125 18.25V19.75ZM309.875 18.25C307.597 18.25 305.75 20.0968 305.75 22.375H307.25C307.25 20.9253 308.425 19.75 309.875 19.75V18.25ZM312.5 24.0625C312.5 24.5803 312.08 25 311.562 25V26.5C312.909 26.5 314 25.4087 314 24.0625H312.5ZM311.562 25C311.045 25 310.625 24.5803 310.625 24.0625H309.125C309.125 25.4087 310.216 26.5 311.562 26.5V25ZM310.625 24.0625C310.625 23.5447 311.045 23.125 311.562 23.125V21.625C310.216 21.625 309.125 22.7163 309.125 24.0625H310.625ZM311.562 23.125C312.08 23.125 312.5 23.5447 312.5 24.0625H314C314 22.7163 312.909 21.625 311.562 21.625V23.125Z"
          fill="white" fill-opacity="0.6"/>
    <path d="M290.203 345.117C289.551 345.117 288.992 344.947 288.527 344.607C288.062 344.268 287.707 343.771 287.461 343.119C287.215 342.467 287.092 341.68 287.092 340.758C287.092 339.844 287.215 339.061 287.461 338.408C287.707 337.756 288.064 337.258 288.533 336.914C289.002 336.57 289.559 336.398 290.203 336.398C290.848 336.398 291.404 336.57 291.873 336.914C292.342 337.258 292.699 337.756 292.945 338.408C293.191 339.061 293.314 339.844 293.314 340.758C293.314 341.68 293.191 342.467 292.945 343.119C292.703 343.771 292.348 344.268 291.879 344.607C291.414 344.947 290.855 345.117 290.203 345.117ZM290.203 344.01C290.582 344.01 290.908 343.885 291.182 343.635C291.459 343.385 291.67 343.018 291.814 342.533C291.959 342.045 292.029 341.453 292.025 340.758C292.025 340.062 291.953 339.471 291.809 338.982C291.664 338.494 291.455 338.123 291.182 337.869C290.908 337.615 290.582 337.488 290.203 337.488C289.824 337.488 289.498 337.615 289.225 337.869C288.951 338.123 288.74 338.494 288.592 338.982C288.443 339.471 288.369 340.062 288.369 340.758C288.369 341.453 288.441 342.045 288.586 342.533C288.73 343.018 288.941 343.385 289.219 343.635C289.496 343.885 289.824 344.01 290.203 344.01ZM295.046 346.277H293.944L296.675 336.117H297.788L295.046 346.277ZM301.465 345.117C300.938 345.117 300.457 345.018 300.024 344.818C299.594 344.615 299.252 344.336 298.998 343.98C298.748 343.625 298.614 343.225 298.594 342.779H299.842C299.869 343.021 299.957 343.236 300.106 343.424C300.258 343.611 300.451 343.762 300.686 343.875C300.924 343.984 301.184 344.039 301.465 344.039C301.801 344.039 302.102 343.963 302.367 343.811C302.637 343.658 302.848 343.449 303 343.184C303.153 342.914 303.229 342.615 303.229 342.287C303.229 341.939 303.151 341.633 302.994 341.367C302.842 341.098 302.625 340.885 302.344 340.729C302.067 340.572 301.754 340.494 301.406 340.494C301.055 340.486 300.754 340.543 300.504 340.664C300.254 340.785 300.057 340.977 299.912 341.238H298.699L299.25 336.516H304.055V337.623H300.323L300.03 339.99H300.106C300.293 339.822 300.528 339.686 300.809 339.58C301.094 339.475 301.393 339.422 301.705 339.422C302.233 339.422 302.707 339.543 303.129 339.785C303.555 340.023 303.887 340.359 304.125 340.793C304.367 341.223 304.487 341.709 304.483 342.252C304.487 342.799 304.358 343.291 304.096 343.729C303.838 344.162 303.479 344.502 303.018 344.748C302.561 344.994 302.043 345.117 301.465 345.117ZM308.687 345.117C308.035 345.117 307.476 344.947 307.011 344.607C306.546 344.268 306.191 343.771 305.945 343.119C305.699 342.467 305.576 341.68 305.576 340.758C305.576 339.844 305.699 339.061 305.945 338.408C306.191 337.756 306.548 337.258 307.017 336.914C307.486 336.57 308.042 336.398 308.687 336.398C309.331 336.398 309.888 336.57 310.357 336.914C310.826 337.258 311.183 337.756 311.429 338.408C311.675 339.061 311.798 339.844 311.798 340.758C311.798 341.68 311.675 342.467 311.429 343.119C311.187 343.771 310.831 344.268 310.363 344.607C309.898 344.947 309.339 345.117 308.687 345.117ZM308.687 344.01C309.066 344.01 309.392 343.885 309.665 343.635C309.943 343.385 310.154 343.018 310.298 342.533C310.443 342.045 310.513 341.453 310.509 340.758C310.509 340.062 310.437 339.471 310.292 338.982C310.148 338.494 309.939 338.123 309.665 337.869C309.392 337.615 309.066 337.488 308.687 337.488C308.308 337.488 307.982 337.615 307.708 337.869C307.435 338.123 307.224 338.494 307.076 338.982C306.927 339.471 306.853 340.062 306.853 340.758C306.853 341.453 306.925 342.045 307.07 342.533C307.214 343.018 307.425 343.385 307.702 343.635C307.98 343.885 308.308 344.01 308.687 344.01ZM315.973 345.117C315.321 345.117 314.762 344.947 314.297 344.607C313.833 344.268 313.477 343.771 313.231 343.119C312.985 342.467 312.862 341.68 312.862 340.758C312.862 339.844 312.985 339.061 313.231 338.408C313.477 337.756 313.834 337.258 314.303 336.914C314.772 336.57 315.329 336.398 315.973 336.398C316.618 336.398 317.174 336.57 317.643 336.914C318.112 337.258 318.469 337.756 318.715 338.408C318.961 339.061 319.084 339.844 319.084 340.758C319.084 341.68 318.961 342.467 318.715 343.119C318.473 343.771 318.118 344.268 317.649 344.607C317.184 344.947 316.625 345.117 315.973 345.117ZM315.973 344.01C316.352 344.01 316.678 343.885 316.952 343.635C317.229 343.385 317.44 343.018 317.584 342.533C317.729 342.045 317.799 341.453 317.795 340.758C317.795 340.062 317.723 339.471 317.579 338.982C317.434 338.494 317.225 338.123 316.952 337.869C316.678 337.615 316.352 337.488 315.973 337.488C315.594 337.488 315.268 337.615 314.995 337.869C314.721 338.123 314.51 338.494 314.362 338.982C314.213 339.471 314.139 340.062 314.139 340.758C314.139 341.453 314.211 342.045 314.356 342.533C314.5 343.018 314.711 343.385 314.989 343.635C315.266 343.885 315.594 344.01 315.973 344.01ZM323.259 345.117C322.607 345.117 322.048 344.947 321.584 344.607C321.119 344.268 320.763 343.771 320.517 343.119C320.271 342.467 320.148 341.68 320.148 340.758C320.148 339.844 320.271 339.061 320.517 338.408C320.763 337.756 321.121 337.258 321.589 336.914C322.058 336.57 322.615 336.398 323.259 336.398C323.904 336.398 324.461 336.57 324.929 336.914C325.398 337.258 325.755 337.756 326.002 338.408C326.248 339.061 326.371 339.844 326.371 340.758C326.371 341.68 326.248 342.467 326.002 343.119C325.759 343.771 325.404 344.268 324.935 344.607C324.47 344.947 323.912 345.117 323.259 345.117ZM323.259 344.01C323.638 344.01 323.964 343.885 324.238 343.635C324.515 343.385 324.726 343.018 324.871 342.533C325.015 342.045 325.086 341.453 325.082 340.758C325.082 340.062 325.009 339.471 324.865 338.982C324.72 338.494 324.511 338.123 324.238 337.869C323.964 337.615 323.638 337.488 323.259 337.488C322.88 337.488 322.554 337.615 322.281 337.869C322.007 338.123 321.796 338.494 321.648 338.982C321.5 339.471 321.425 340.062 321.425 340.758C321.425 341.453 321.498 342.045 321.642 342.533C321.787 343.018 321.998 343.385 322.275 343.635C322.552 343.885 322.88 344.01 323.259 344.01Z"
          fill="white" fill-opacity="0.3"/>
</svg>
