<svg width="19" height="18" viewBox="0 0 19 18" fill="none" xmlns="http://www.w3.org/2000/svg">
    <path d="M9.5 1.5C5.35786 1.5 2 4.85786 2 9C2 13.1421 5.35786 16.5 9.5 16.5C13.6421 16.5 17 13.1421 17 9C17 4.85786 13.6421 1.5 9.5 1.5Z" fill="white" fill-opacity="0.15"/>
    <path fill-rule="evenodd" clip-rule="evenodd" d="M8.21967 6.21967C8.51256 5.92678 8.98744 5.92678 9.28033 6.21967L11.5303 8.46967C11.8232 8.76256 11.8232 9.23744 11.5303 9.53033L9.28033 11.7803C8.98744 12.0732 8.51256 12.0732 8.21967 11.7803C7.92678 11.4874 7.92678 11.0126 8.21967 10.7197L9.93934 9L8.21967 7.28033C7.92678 6.98744 7.92678 6.51256 8.21967 6.21967Z" fill="white" fill-opacity="0.5"/>
</svg>
