<svg width="25" height="24" viewBox="0 0 25 24" fill="none" xmlns="http://www.w3.org/2000/svg">
    <g clip-path="url(#clip0_1_18200)">
        <path fill-rule="evenodd" clip-rule="evenodd"
              d="M7.96447 3.46447C7.02678 4.40215 6.5 5.67392 6.5 7C6.5 8.32608 7.02678 9.59785 7.96447 10.5355C8.90215 11.4732 10.1739 12 11.5 12C12.8261 12 14.0979 11.4732 15.0355 10.5355C15.9732 9.59785 16.5 8.32608 16.5 7C16.5 5.67392 15.9732 4.40215 15.0355 3.46447C14.0979 2.52678 12.8261 2 11.5 2C10.1739 2 8.90215 2.52678 7.96447 3.46447ZM11.5 13C9.105 13 6.925 13.694 5.322 14.672V14.671C4.521 15.161 3.838 15.736 3.344 16.361C2.858 16.977 2.5 17.713 2.5 18.5C2.5 19.345 2.91 20.01 3.503 20.486C4.063 20.936 4.802 21.234 5.587 21.442C7.165 21.86 9.271 22 11.5 22L12.185 21.995C12.3525 21.9927 12.5167 21.9484 12.6626 21.8661C12.8085 21.7838 12.9313 21.6662 13.0199 21.524C13.1085 21.3819 13.16 21.2198 13.1696 21.0525C13.1792 20.8853 13.1467 20.7184 13.075 20.567C12.707 19.79 12.5 18.92 12.5 18C12.4975 16.7969 12.8586 15.6212 13.536 14.627C13.6332 14.4842 13.6918 14.3186 13.706 14.1465C13.7202 13.9743 13.6895 13.8014 13.617 13.6446C13.5445 13.4878 13.4326 13.3524 13.2922 13.2517C13.1518 13.151 12.9878 13.0884 12.816 13.07C12.387 13.024 11.947 13 11.5 13Z"
              fill="white"/>
        <path d="M18.5 14C18.7652 14 19.0196 14.1054 19.2071 14.2929C19.3946 14.4804 19.5 14.7348 19.5 15V17H21.5C21.7652 17 22.0196 17.1054 22.2071 17.2929C22.3946 17.4804 22.5 17.7348 22.5 18C22.5 18.2652 22.3946 18.5196 22.2071 18.7071C22.0196 18.8946 21.7652 19 21.5 19H19.5V21C19.5 21.2652 19.3946 21.5196 19.2071 21.7071C19.0196 21.8946 18.7652 22 18.5 22C18.2348 22 17.9804 21.8946 17.7929 21.7071C17.6054 21.5196 17.5 21.2652 17.5 21V19H15.5C15.2348 19 14.9804 18.8946 14.7929 18.7071C14.6054 18.5196 14.5 18.2652 14.5 18C14.5 17.7348 14.6054 17.4804 14.7929 17.2929C14.9804 17.1054 15.2348 17 15.5 17H17.5V15C17.5 14.7348 17.6054 14.4804 17.7929 14.2929C17.9804 14.1054 18.2348 14 18.5 14Z"
              fill="#985CFF"/>
    </g>
    <defs>
        <clipPath id="clip0_1_18200">
            <rect width="24" height="24" fill="white" transform="translate(0.5)"/>
        </clipPath>
    </defs>
</svg>
