<svg width="27" height="27" viewBox="0 0 27 27" fill="none" xmlns="http://www.w3.org/2000/svg">
    <path fill-rule="evenodd" clip-rule="evenodd"
          d="M9.05007 4.8407C9.419 4.10282 10.1732 3.63672 10.9982 3.63672H16.1862C17.0111 3.63672 17.7653 4.10282 18.1342 4.8407L18.6212 5.81475H20.1262C21.9306 5.81475 23.3933 7.27746 23.3933 9.08179V19.9719C23.3933 21.7763 21.9306 23.239 20.1262 23.239H7.05806C5.25373 23.239 3.79102 21.7763 3.79102 19.9719V9.08179C3.79102 7.27746 5.25373 5.81475 7.05806 5.81475H8.56305L9.05007 4.8407ZM15.7702 14.5269C15.7702 15.7298 14.7951 16.7049 13.5922 16.7049C12.3892 16.7049 11.4141 15.7298 11.4141 14.5269C11.4141 13.3239 12.3892 12.3488 13.5922 12.3488C14.7951 12.3488 15.7702 13.3239 15.7702 14.5269ZM17.9482 14.5269C17.9482 16.9326 15.9979 18.8829 13.5922 18.8829C11.1864 18.8829 9.23609 16.9326 9.23609 14.5269C9.23609 12.1211 11.1864 10.1708 13.5922 10.1708C15.9979 10.1708 17.9482 12.1211 17.9482 14.5269Z"
          fill="white"/>
</svg>
