<svg width="41" height="40" viewBox="0 0 41 40" fill="none" xmlns="http://www.w3.org/2000/svg">
    <path fill-rule="evenodd" clip-rule="evenodd"
          d="M36.5 30.5984C36.5 32.8076 34.7091 34.5984 32.5 34.5984H8.5C6.29086 34.5984 4.5 32.8076 4.5 30.5984V14.1984C4.5 11.9893 6.29086 10.1984 8.5 10.1984H12.5L15.3 5.39844H25.7L28.5 10.1984H32.5C34.7091 10.1984 36.5 11.9893 36.5 14.1984V30.5984ZM20.5 27.3984C23.8137 27.3984 26.5 24.7121 26.5 21.3984C26.5 18.0847 23.8137 15.3984 20.5 15.3984C17.1863 15.3984 14.5 18.0847 14.5 21.3984C14.5 24.7121 17.1863 27.3984 20.5 27.3984Z"
          fill="white"/>
    <circle cx="20.5" cy="21.6016" r="4" fill="white"/>
</svg>
