<svg width="25" height="24" viewBox="0 0 25 24" fill="none" xmlns="http://www.w3.org/2000/svg">
    <g clip-path="url(#clip0_1_18207)">
        <path d="M5.5 9C5.5 7.14348 6.2375 5.36301 7.55025 4.05025C8.86301 2.7375 10.6435 2 12.5 2C14.3565 2 16.137 2.7375 17.4497 4.05025C18.7625 5.36301 19.5 7.14348 19.5 9V10.035C21.196 10.278 22.5 11.737 22.5 13.5V13.75C22.5 15.525 20.969 17.081 19.168 16.998C18.428 19.118 16.546 20.547 14.515 20.909C14.045 21.081 13.489 21 13 21C12.6022 21 12.2206 20.842 11.9393 20.5607C11.658 20.2794 11.5 19.8978 11.5 19.5C11.5 19.1022 11.658 18.7206 11.9393 18.4393C12.2206 18.158 12.6022 18 13 18C13.793 18 14.671 17.885 15.207 18.609C16.503 17.992 17.5 16.689 17.5 15V9C17.5 7.67392 16.9732 6.40215 16.0355 5.46447C15.0979 4.52678 13.8261 4 12.5 4C11.1739 4 9.90215 4.52678 8.96447 5.46447C8.02678 6.40215 7.5 7.67392 7.5 9V15.25C7.5 15.7141 7.31563 16.1592 6.98744 16.4874C6.65925 16.8156 6.21413 17 5.75 17C4.88805 17 4.0614 16.6576 3.4519 16.0481C2.84241 15.4386 2.5 14.612 2.5 13.75V13.5C2.49978 12.6582 2.80296 11.8446 3.35395 11.2082C3.90495 10.5718 4.66685 10.1553 5.5 10.035V9Z"
              fill="white"/>
    </g>
    <defs>
        <clipPath id="clip0_1_18207">
            <rect width="24" height="24" fill="white" transform="translate(0.5)"/>
        </clipPath>
    </defs>
</svg>
