<svg width="25" height="24" viewBox="0 0 25 24" fill="none" xmlns="http://www.w3.org/2000/svg">
    <path d="M9.5 8L7.6094 9.2604C6.97351 9.68433 6.15537 9.70699 5.5 9.32837V21H19.5V9.32837C18.8446 9.70699 18.0265 9.68433 17.3906 9.2604L15.5 8L13.6094 9.2604C12.9376 9.70827 12.0624 9.70827 11.3906 9.2604L9.5 8Z"
          fill="white" stroke="white" stroke-width="2" stroke-linecap="round" stroke-linejoin="round"/>
    <path d="M14.5 21V16C14.5 14.8954 13.6046 14 12.5 14C11.3954 14 10.5 14.8954 10.5 16V21H14.5Z" fill="#26252A"
          stroke="#26252A" stroke-width="2"/>
    <path d="M4.5 21H6.27778H18.7222H20.5" stroke="white" stroke-width="2" stroke-linecap="round"
          stroke-linejoin="round"/>
    <path d="M4.10223 6.49328L4.99666 4.25722C5.30038 3.4979 6.0358 3 6.85361 3H18.1455C18.9633 3 19.6987 3.4979 20.0024 4.25722L20.8969 6.49328C21.2481 7.37141 20.9362 8.37554 20.1493 8.90016L19.6089 9.2604C19.573 9.28434 19.5366 9.307 19.4995 9.32837C18.8442 9.70699 18.026 9.68433 17.3901 9.2604L15.4995 8L13.6089 9.2604C12.9371 9.70827 12.0619 9.70827 11.3901 9.2604L9.49954 8L7.60894 9.2604C6.97305 9.68433 6.15492 9.70699 5.49954 9.32837C5.46254 9.307 5.42605 9.28434 5.39014 9.2604L4.84979 8.90016C4.06285 8.37554 3.75098 7.37141 4.10223 6.49328Z"
          fill="#985CFF" stroke="#985CFF" stroke-width="2" stroke-linecap="round" stroke-linejoin="round"/>
</svg>
