<svg width="17" height="16" viewBox="0 0 17 16" fill="none" xmlns="http://www.w3.org/2000/svg">
    <path fill-rule="evenodd" clip-rule="evenodd"
          d="M8.50065 2.66536C5.55513 2.66536 3.16732 5.05318 3.16732 7.9987C3.16732 10.9442 5.55513 13.332 8.50065 13.332C11.4462 13.332 13.834 10.9442 13.834 7.9987C13.834 5.05318 11.4462 2.66536 8.50065 2.66536ZM1.83398 7.9987C1.83398 4.3168 4.81875 1.33203 8.50065 1.33203C12.1825 1.33203 15.1673 4.3168 15.1673 7.9987C15.1673 11.6806 12.1825 14.6654 8.50065 14.6654C4.81875 14.6654 1.83398 11.6806 1.83398 7.9987Z"
          fill="white" fill-opacity="0.6"/>
    <path d="M8.50065 4.66797C8.13246 4.66797 7.83398 4.96645 7.83398 5.33464C7.83398 5.70283 8.13246 6.0013 8.50065 6.0013C8.86884 6.0013 9.16732 5.70283 9.16732 5.33464C9.16732 4.96645 8.86884 4.66797 8.50065 4.66797Z"
          fill="white" fill-opacity="0.6"/>
    <path d="M9.16732 8.0013C9.16732 7.63311 8.86884 7.33464 8.50065 7.33464C8.13246 7.33464 7.83398 7.63311 7.83398 8.0013V10.668C7.83398 11.0362 8.13246 11.3346 8.50065 11.3346C8.86884 11.3346 9.16732 11.0362 9.16732 10.668V8.0013Z"
          fill="white" fill-opacity="0.6"/>
</svg>
