<svg width="25" height="25" viewBox="0 0 25 25" fill="none" xmlns="http://www.w3.org/2000/svg">
    <path fill-rule="evenodd" clip-rule="evenodd"
          d="M12.5 22.1133C6.977 22.1133 2.5 17.6363 2.5 12.1133C2.5 6.59028 6.977 2.11328 12.5 2.11328C18.023 2.11328 22.5 6.59028 22.5 12.1133C22.5 17.6363 18.023 22.1133 12.5 22.1133ZM7 8.11328V10.1133H9V8.11328H7ZM10 8.11328V10.1133H12V8.11328H10ZM13 8.11328V10.1133H15V8.11328H13ZM16 8.11328V10.1133H18V8.11328H16ZM7 11.1133V13.1133H9V11.1133H7ZM10 11.1133V13.1133H12V11.1133H10ZM9.5 15.1133V17.1133H15.5V15.1133H9.5ZM13 11.1133V13.1133H15V11.1133H13ZM16 11.1133V13.1133H18V11.1133H16Z"
          fill="#985CFF"/>
</svg>
