<svg width="24" height="25" viewBox="0 0 24 25" fill="none" xmlns="http://www.w3.org/2000/svg">
    <path d="M3 10.2594C3 8.01917 3 6.89906 3.43597 6.04341C3.81947 5.29076 4.43139 4.67884 5.18404 4.29535C6.03968 3.85938 7.15979 3.85938 9.4 3.85938H14.6C16.8402 3.85938 17.9603 3.85938 18.816 4.29535C19.5686 4.67884 20.1805 5.29076 20.564 6.04341C21 6.89906 21 8.01917 21 10.2594V15.4594C21 17.6996 21 18.8197 20.564 19.6753C20.1805 20.428 19.5686 21.0399 18.816 21.4234C17.9603 21.8594 16.8402 21.8594 14.6 21.8594H9.4C7.15979 21.8594 6.03968 21.8594 5.18404 21.4234C4.43139 21.0399 3.81947 20.428 3.43597 19.6753C3 18.8197 3 17.6996 3 15.4594V10.2594Z"
          fill="#FF5151"/>
    <path fill-rule="evenodd" clip-rule="evenodd"
          d="M17 9.85938C17.5523 9.85938 18 10.3071 18 10.8594C18 11.4117 17.5523 11.8594 17 11.8594H11C10.4477 11.8594 10 11.4117 10 10.8594C10 10.3071 10.4477 9.85938 11 9.85938H17ZM17 13.8594C17.5523 13.8594 18 14.3071 18 14.8594C18 15.4117 17.5523 15.8594 17 15.8594H15C14.4477 15.8594 14 15.4117 14 14.8594C14 14.3071 14.4477 13.8594 15 13.8594H17Z"
          fill="white"/>
</svg>
