<svg width="25" height="24" viewBox="0 0 25 24" fill="none" xmlns="http://www.w3.org/2000/svg">
    <g clip-path="url(#clip0_1_18193)">
        <path fill-rule="evenodd" clip-rule="evenodd"
              d="M14.99 2H8.5C7.70435 2 6.94129 2.31607 6.37868 2.87868C5.81607 3.44129 5.5 4.20435 5.5 5V19C5.5 19.7956 5.81607 20.5587 6.37868 21.1213C6.94129 21.6839 7.70435 22 8.5 22H16.5C17.2956 22 18.0587 21.6839 18.6213 21.1213C19.1839 20.5587 19.5 19.7956 19.5 19V10.83C19.1259 10.9622 18.7292 11.0188 18.3331 10.9967C17.9369 10.9745 17.5491 10.874 17.192 10.7009C16.835 10.5278 16.5158 10.2856 16.253 9.98832C15.9902 9.69104 15.789 9.34458 15.661 8.969L15.532 8.591C15.4825 8.44666 15.4006 8.31557 15.2926 8.20776C15.1846 8.09994 15.0534 8.01827 14.909 7.969L14.53 7.839C13.9377 7.63672 13.4235 7.25426 13.0594 6.74517C12.6953 6.23609 12.4996 5.62588 12.4996 5C12.4996 4.37412 12.6953 3.76391 13.0594 3.25483C13.4235 2.74574 13.9377 2.36328 14.53 2.161L14.909 2.032L14.99 2ZM11.4393 16.4393C11.7206 16.158 12.1022 16 12.5 16C12.8978 16 13.2794 16.158 13.5607 16.4393C13.842 16.7206 14 17.1022 14 17.5C14 17.8978 13.842 18.2794 13.5607 18.5607C13.2794 18.842 12.8978 19 12.5 19C12.1022 19 11.7206 18.842 11.4393 18.5607C11.158 18.2794 11 17.8978 11 17.5C11 17.1022 11.158 16.7206 11.4393 16.4393Z"
              fill="white"/>
        <path d="M18.5 1C18.6871 1 18.8704 1.05248 19.0292 1.15147C19.1879 1.25046 19.3157 1.392 19.398 1.56L19.446 1.677L19.576 2.055C19.7132 2.45718 19.9343 2.82563 20.2246 3.13594C20.5149 3.44625 20.8678 3.69135 21.26 3.855L21.445 3.925L21.823 4.054C22.0102 4.11786 22.1742 4.2358 22.2944 4.3929C22.4146 4.54999 22.4854 4.7392 22.4981 4.93658C22.5107 5.13396 22.4645 5.33065 22.3654 5.50178C22.2662 5.67291 22.1185 5.8108 21.941 5.898L21.823 5.946L21.445 6.076C21.0428 6.2132 20.6744 6.43428 20.3641 6.72459C20.0537 7.01491 19.8087 7.36783 19.645 7.76L19.575 7.945L19.446 8.323C19.382 8.51014 19.264 8.6741 19.1068 8.79416C18.9497 8.91423 18.7605 8.98499 18.5631 8.99752C18.3657 9.01004 18.1691 8.96376 17.998 8.86452C17.8269 8.76528 17.6891 8.61755 17.602 8.44L17.554 8.323L17.424 7.945C17.2868 7.54282 17.0657 7.17437 16.7754 6.86406C16.4851 6.55375 16.1322 6.30865 15.74 6.145L15.555 6.075L15.177 5.946C14.9898 5.88214 14.8258 5.7642 14.7056 5.6071C14.5854 5.45001 14.5146 5.2608 14.5019 5.06342C14.4893 4.86604 14.5355 4.66935 14.6346 4.49822C14.7338 4.32709 14.8815 4.1892 15.059 4.102L15.177 4.054L15.555 3.924C15.9572 3.7868 16.3256 3.56572 16.6359 3.27541C16.9463 2.98509 17.1913 2.63217 17.355 2.24L17.425 2.055L17.554 1.677C17.6214 1.47959 17.7488 1.30818 17.9184 1.18679C18.0881 1.06539 18.2914 1.00008 18.5 1Z"
              fill="#985CFF"/>
    </g>
    <defs>
        <clipPath id="clip0_1_18193">
            <rect width="24" height="24" fill="white" transform="translate(0.5)"/>
        </clipPath>
    </defs>
</svg>
