<svg width="21" height="20" viewBox="0 0 21 20" fill="none" xmlns="http://www.w3.org/2000/svg">
    <path d="M9.34026 2.45031C9.76108 1.40719 11.2379 1.40719 11.6587 2.45031L13.2731 6.45208C13.3321 6.59827 13.4685 6.69866 13.6256 6.71148L17.6807 7.04236C18.7803 7.13208 19.233 8.49827 18.4046 9.22683L15.3275 11.9332C15.2137 12.0334 15.1632 12.1875 15.1958 12.3356L16.1798 16.8082C16.4256 17.9254 15.1658 18.7585 14.2339 18.095L10.7412 15.6081C10.5965 15.5051 10.4025 15.5051 10.2578 15.6081L6.76502 18.095C5.83314 18.7585 4.5734 17.9254 4.8192 16.8082L5.80318 12.3356C5.83577 12.1875 5.7853 12.0334 5.67142 11.9332L2.59422 9.22685C1.76584 8.49829 2.21856 7.13208 3.31809 7.04236L7.37334 6.71148C7.53046 6.69866 7.66689 6.59827 7.72586 6.45208L9.34026 2.45031Z"
          fill="#FFDD56"/>
</svg>
