<svg width="21" height="21" viewBox="0 0 21 21" fill="none" xmlns="http://www.w3.org/2000/svg">
    <path d="M10.4772 15.207C9.55788 15.207 8.81055 15.9544 8.81055 16.8678C8.81055 17.7871 9.55788 18.5344 10.4772 18.5344C11.3965 18.5344 12.1439 17.7871 12.1439 16.8678C12.1439 15.9544 11.3965 15.207 10.4772 15.207Z"
          fill="white" fill-opacity="0.7"/>
    <path d="M10.4772 12.5404C11.3977 12.5404 12.1439 11.7942 12.1439 10.8737C12.1439 9.95324 11.3977 9.20703 10.4772 9.20703C9.55675 9.20703 8.81055 9.95324 8.81055 10.8737C8.81055 11.7942 9.55675 12.5404 10.4772 12.5404Z"
          fill="white" fill-opacity="0.7"/>
    <path d="M10.4772 3.21484C9.55788 3.21484 8.81055 3.96217 8.81055 4.88151C8.81055 5.79491 9.55788 6.54224 10.4772 6.54224C11.3965 6.54224 12.1439 5.79491 12.1439 4.88151C12.1439 3.96217 11.3965 3.21484 10.4772 3.21484Z"
          fill="white" fill-opacity="0.7"/>
</svg>
