<svg width="25" height="24" viewBox="0 0 25 24" fill="none" xmlns="http://www.w3.org/2000/svg">
    <path fill-rule="evenodd" clip-rule="evenodd"
          d="M3.5 15.2413L3.5 12C3.5 11.4477 3.94772 11 4.5 11C5.05229 11 5.5 11.4477 5.5 12L5.5 15.2C5.5 16.0566 5.50078 16.6389 5.53755 17.089C5.57337 17.5274 5.6383 17.7516 5.71799 17.908C5.90973 18.2843 6.2157 18.5903 6.59202 18.782C6.74842 18.8617 6.97262 18.9266 7.41104 18.9625C7.86113 18.9992 8.44342 19 9.3 19H15.7C16.5566 19 17.1389 18.9992 17.589 18.9624C18.0274 18.9266 18.2516 18.8617 18.408 18.782C18.7843 18.5903 19.0903 18.2843 19.282 17.908C19.3617 17.7516 19.4266 17.5274 19.4625 17.089C19.4992 16.6389 19.5 16.0566 19.5 15.2L19.5 12C19.5 11.4477 19.9477 11 20.5 11C21.0523 11 21.5 11.4477 21.5 12V15.2411C21.5 16.0462 21.5 16.7106 21.4558 17.2518C21.4099 17.8139 21.3113 18.3306 21.064 18.816C20.6805 19.5686 20.0686 20.1805 19.316 20.564C18.8306 20.8113 18.3139 20.9099 17.7518 20.9558C17.2106 21 16.5463 21 15.7413 21H9.2587C8.45373 21 7.78937 21 7.24817 20.9558C6.68608 20.9099 6.16937 20.8113 5.68404 20.564C4.93139 20.1805 4.31947 19.5686 3.93597 18.816C3.68868 18.3306 3.59012 17.8139 3.54419 17.2518C3.49998 16.7106 3.49999 16.0463 3.5 15.2413Z"
          fill="white"/>
    <path d="M10.2071 7.70711C9.81658 8.09763 9.18342 8.09763 8.79289 7.70711C8.40237 7.31658 8.40237 6.68342 8.79289 6.29289L11.7929 3.29289C12.1834 2.90237 12.8166 2.90237 13.2071 3.29289L16.2071 6.29289C16.5976 6.68342 16.5976 7.31658 16.2071 7.70711C15.8166 8.09763 15.1834 8.09763 14.7929 7.70711L13.5 6.41421V15C13.5 15.5523 13.0523 16 12.5 16C11.9477 16 11.5 15.5523 11.5 15V6.41421L10.2071 7.70711Z"
          fill="white"/>
</svg>
