<svg width="19" height="18" viewBox="0 0 19 18" fill="none" xmlns="http://www.w3.org/2000/svg">
    <path d="M15.0027 11C13.853 11.0011 12.777 11.5688 12.1267 12.518L7.25049 10.3138C7.59674 9.47649 7.59814 8.53613 7.25436 7.69807L12.1239 5.4827C13.2205 7.07023 15.3949 7.46746 16.9807 6.36962C18.5666 5.27178 18.9634 3.09507 17.8667 1.50754C16.77 -0.0799943 14.5957 -0.477229 13.0098 0.620615C12.0656 1.27447 11.5023 2.35122 11.5044 3.50039C11.5076 3.6983 11.5276 3.89552 11.5645 4.08991L6.38805 6.44485C4.9785 5.12308 2.76551 5.19514 1.44515 6.6062C0.1248 8.01726 0.196436 10.2323 1.60598 11.5544C2.9467 12.8118 5.03047 12.8164 6.37646 11.565L11.5666 13.9107C11.5304 14.1051 11.5107 14.302 11.5072 14.4996C11.5069 16.4327 13.0716 17.9998 15.0027 18.0002C16.9337 18.0005 18.4991 16.4341 18.4995 14.501C18.4998 12.5679 16.9351 11.0007 15.0041 11.0004C15.0037 11 15.0034 11 15.0027 11ZM15.0027 1.50051C16.106 1.50016 17.0011 2.39516 17.0014 3.49969C17.0018 4.60421 16.1077 5.50027 15.0044 5.50062C13.9011 5.50098 13.006 4.60597 13.0056 3.50144C13.0056 3.50109 13.0056 3.50109 13.0056 3.50074C13.0063 2.39657 13.9 1.50191 15.0027 1.50051ZM4.01598 11C2.91264 11.0004 2.01754 10.1054 2.01719 9.00086C2.01684 7.89634 2.91089 7.00027 4.01422 6.99992C5.11756 6.99957 6.01266 7.89458 6.01301 8.9991C6.01301 8.99945 6.01301 8.99945 6.01301 8.9998C6.01196 10.1036 5.11861 10.9983 4.01598 11ZM15.0027 16.4995C13.8993 16.4995 13.0046 15.6041 13.0046 14.4992C13.0046 13.3943 13.899 12.499 15.0027 12.499C16.106 12.499 17.0007 13.3943 17.0007 14.4992C17 15.6034 16.106 16.4984 15.0027 16.4995Z"
          fill="white"/>
</svg>
